#!OML:ASF F:\twosubjects\two\Thursday\Session 1\Rory.ASF
:FULLY-SPECIFIED
:DEGREES
358
root 9.26351 18.4101 -5.77516 -4.37535 66.6067 -5.31446
lowerback -0.839379 -2.7811 -0.935268
upperback 4.46115 -3.46832 -3.40222
thorax 4.92696 -1.65614 -3.17365
lowerneck 0.0564706 -8.62249 -5.94598
upperneck 39.3996 -9.33386 -3.136
head 13.5363 -4.9396 -1.13335
rclavicle -1.49089e-014 -2.38542e-014
rhumerus -36.5974 1.66914 -23.6421
rradius 131.007
rwrist -28.8999
rhand -3.49523 -2.44007
rfingers 7.12502
rthumb 22.2386 -31.1806
lclavicle -1.49089e-014 -2.38542e-014
lhumerus -37.2501 20.4528 73.7823
lradius 25.1723
lwrist -15.8046
lhand -13.4541 34.5435
lfingers 7.12502
lthumb 12.6555 64.1401
rfemur -10.6163 5.8044 20.815
rtibia 23.5459
rfoot -12.429 2.20041
rtoes 17.2427
lfemur -5.88781 4.41254 -12.1936
ltibia 36.3212
lfoot -9.43381 -4.97038
ltoes -3.48244
359
root 9.26048 18.4008 -5.75816 -5.12615 66.5112 -6.01052
lowerback -0.659842 -2.64303 -0.599854
upperback 4.50845 -3.3102 -3.19298
thorax 4.87349 -1.57023 -3.12775
lowerneck -0.0645696 -8.56917 -6.15394
upperneck 39.5542 -9.17752 -3.1854
head 13.6463 -4.89655 -1.11305
rclavicle -9.54166e-015 -7.95139e-015
rhumerus -37.2669 1.42299 -23.4055
rradius 131.534
rwrist -29.0321
rhand -3.77635 -2.59329
rfingers 7.12502
rthumb 21.9687 -31.3658
lclavicle -9.54166e-015 -7.95139e-015
lhumerus -36.8512 19.7375 74.39
lradius 25.3084
lwrist -15.4111
lhand -12.9445 34.495
lfingers 7.12502
lthumb 13.1467 64.0605
rfemur -10.4037 6.08604 21.1631
rtibia 23.4327
rfoot -12.4285 2.25118
rtoes 18.194
lfemur -6.55741 4.70949 -11.605
ltibia 37.6898
lfoot -8.50643 -5.61725
ltoes -5.13002
360
root 9.25781 18.3981 -5.74488 -6.73076 66.3129 -7.73581
lowerback -0.478275 -2.68301 0.186427
upperback 4.47151 -3.4118 -2.9267
thorax 4.6957 -1.6009 -3.28273
lowerneck -0.126866 -8.33657 -5.93274
upperneck 39.5648 -8.67694 -3.67638
head 13.6091 -4.69899 -1.28704
rclavicle -4.63168e-014 0
rhumerus -37.6262 1.35728 -23.3647
rradius 131.996
rwrist -29.4442
rhand -3.24752 -2.73686
rfingers 7.12502
rthumb 22.4764 -31.4489
lclavicle -4.63168e-014 0
lhumerus -36.8618 18.7329 74.9451
lradius 26.0041
lwrist -14.1639
lhand -12.6128 34.911
lfingers 7.12502
lthumb 13.4664 64.4557
rfemur -10.2928 6.03596 22.0243
rtibia 23.2445
rfoot -12.2616 2.27913
rtoes 15.1129
lfemur -7.37488 5.02079 -10.4836
ltibia 39.1037
lfoot -7.5191 -6.39509
ltoes -3.54596
361
root 9.25892 18.4005 -5.73255 -7.29392 66.1969 -8.35558
lowerback -0.32662 -3.05766 0.42395
upperback 4.39271 -3.93678 -2.71938
thorax 4.49575 -1.86343 -3.20755
lowerneck -0.0578296 -7.82248 -6.08488
upperneck 39.4202 -7.73526 -4.17503
head 13.5019 -4.36594 -1.34272
rclavicle 1.08536e-013 -7.95139e-015
rhumerus -37.0836 1.64187 -23.5858
rradius 132.318
rwrist -29.7334
rhand -2.4248 -2.68976
rfingers 7.12502
rthumb 23.2659 -31.3042
lclavicle 1.08536e-013 -7.95139e-015
lhumerus -37.2977 19.1533 74.8177
lradius 26.6893
lwrist -13.6356
lhand -12.7033 34.833
lfingers 7.12502
lthumb 13.3792 64.3834
rfemur -10.2324 5.89059 22.3482
rtibia 23.1067
rfoot -12.1956 2.51214
rtoes 15.0464
lfemur -8.21814 5.28965 -9.9021
ltibia 40.4799
lfoot -6.54679 -7.19533
ltoes -3.64796
362
root 9.25892 18.3923 -5.71243 -7.44156 66.1553 -8.40614
lowerback -0.235724 -3.08732 0.493398
upperback 4.47156 -3.97515 -2.74361
thorax 4.51819 -1.87785 -3.2704
lowerneck -0.149378 -7.65849 -5.92404
upperneck 39.5628 -7.44175 -4.31779
head 13.5664 -4.22802 -1.40247
rclavicle -7.55382e-015 1.43125e-014
rhumerus -37.4661 1.48124 -23.7369
rradius 132.599
rwrist -29.7861
rhand -2.66807 -2.06499
rfingers 7.12502
rthumb 23.0325 -30.7087
lclavicle -7.55382e-015 1.43125e-014
lhumerus -37.1876 18.7274 74.8706
lradius 27.1239
lwrist -13.6634
lhand -12.7243 34.3624
lfingers 7.12502
lthumb 13.359 63.9142
rfemur -10.0584 5.87807 22.4151
rtibia 23.0461
rfoot -12.2053 2.75026
rtoes 17.3357
lfemur -8.87209 5.85546 -9.51876
ltibia 41.743
lfoot -5.33615 -8.40365
ltoes -4.92447
363
root 9.25457 18.3817 -5.69318 -7.82223 66.0534 -8.64649
lowerback -0.157793 -2.86002 0.730455
upperback 4.63908 -3.66731 -2.84306
thorax 4.64639 -1.70791 -3.49763
lowerneck -0.344522 -7.68038 -5.70349
upperneck 39.9015 -7.51763 -4.13811
head 13.7603 -4.2024 -1.39874
rclavicle -2.64384e-014 6.36111e-015
rhumerus -38.4141 1.06019 -23.8209
rradius 132.848
rwrist -29.9209
rhand -3.37236 -1.52228
rfingers 7.12502
rthumb 22.3566 -30.2487
lclavicle -2.64384e-014 6.36111e-015
lhumerus -36.7248 16.8597 75.4363
lradius 27.6537
lwrist -12.7657
lhand -12.2264 34.3981
lfingers 7.12502
lthumb 13.8389 63.9177
rfemur -9.88545 5.74965 22.6115
rtibia 23.065
rfoot -12.2013 2.98804
rtoes 16.7469
lfemur -9.40471 6.37828 -8.99359
ltibia 42.8984
lfoot -3.66438 -9.52859
ltoes -2.14672
364
root 9.25219 18.3815 -5.68119 -6.89574 66.0318 -7.55337
lowerback -0.165076 -2.81511 0.444683
upperback 4.83767 -3.57479 -3.12718
thorax 4.86494 -1.65827 -3.63904
lowerneck -0.730692 -7.5383 -5.54254
upperneck 40.0922 -7.33847 -4.01849
head 13.9256 -4.08605 -1.38309
rclavicle -1.23445e-013 -2.22639e-014
rhumerus -38.7746 0.670705 -24.1341
rradius 133.008
rwrist -30.2329
rhand -3.61959 -1.7048
rfingers 7.12502
rthumb 22.1192 -30.4595
lclavicle -1.23445e-013 -2.22639e-014
lhumerus -36.0458 15.1446 75.7253
lradius 27.9753
lwrist -11.4185
lhand -12.1708 35.1388
lfingers 7.12502
lthumb 13.8924 64.6548
rfemur -9.8208 6.2334 22.1474
rtibia 23.1524
rfoot -12.3333 2.86932
rtoes 17.4797
lfemur -10.0218 6.5638 -9.19393
ltibia 43.9509
lfoot -2.07062 -9.99256
ltoes 0.808095
365
root 9.25298 18.3865 -5.66603 -6.21957 66.0271 -6.6761
lowerback 0.232844 -3.00495 0.000173576
upperback 4.75512 -3.82115 -3.14628
thorax 4.56375 -1.80324 -3.39096
lowerneck -0.78869 -7.21569 -5.7709
upperneck 40.1711 -6.7114 -4.29475
head 13.9769 -3.87579 -1.38936
rclavicle -6.44062e-014 3.33958e-014
rhumerus -38.4422 0.900819 -24.144
rradius 133.044
rwrist -30.7044
rhand -3.56263 -1.95324
rfingers 7.12502
rthumb 22.1739 -30.7015
lclavicle -6.44062e-014 3.33958e-014
lhumerus -35.831 15.4319 75.5005
lradius 27.7132
lwrist -11.6767
lhand -12.6884 35.9992
lfingers 7.12502
lthumb 13.3936 65.5487
rfemur -9.70882 6.50873 21.8366
rtibia 23.2504
rfoot -12.4302 2.62037
rtoes 19.4018
lfemur -10.5696 6.72351 -9.30113
ltibia 44.9376
lfoot -0.7896 -10.4069
ltoes 0.576257
366
root 9.25186 18.3893 -5.64559 -6.64534 65.9056 -6.96826
lowerback 0.410864 -3.23829 -0.149753
upperback 4.77948 -4.14617 -2.84104
thorax 4.50204 -1.97976 -2.99099
lowerneck -0.703359 -6.83224 -6.5045
upperneck 40.1563 -5.96347 -4.47294
head 13.9928 -3.67285 -1.2477
rclavicle 2.98177e-014 -1.90833e-014
rhumerus -37.6232 1.12333 -23.9
rradius 132.924
rwrist -31.5354
rhand -3.61331 -1.77158
rfingers 7.12502
rthumb 22.1252 -30.5256
lclavicle 2.98177e-014 -1.90833e-014
lhumerus -35.7882 18.0241 74.8254
lradius 27.2409
lwrist -14.1091
lhand -12.3336 35.4883
lfingers 7.12502
lthumb 13.7355 65.0149
rfemur -9.55469 6.53251 22.1592
rtibia 23.2655
rfoot -12.3725 2.2338
rtoes 19.689
lfemur -11.033 6.92053 -8.80002
ltibia 45.8827
lfoot 0.569909 -10.8945
ltoes 0.937734
367
root 9.25088 18.3875 -5.62877 -6.8314 65.7671 -7.1175
lowerback 0.356667 -3.38038 -0.249046
upperback 4.88644 -4.33654 -2.6892
thorax 4.6545 -2.07959 -2.79378
lowerneck -0.816034 -6.55987 -6.86357
upperneck 40.1881 -5.43194 -4.63183
head 14.0482 -3.51136 -1.19575
rclavicle -3.49861e-014 -1.90833e-014
rhumerus -37.0676 1.08917 -23.8549
rradius 132.791
rwrist -32.4773
rhand -3.75755 -1.20317
rfingers 7.12502
rthumb 21.9868 -29.9735
lclavicle -3.49861e-014 -1.90833e-014
lhumerus -35.7297 20.1038 73.9909
lradius 26.9982
lwrist -16.3864
lhand -11.9122 33.8584
lfingers 7.12502
lthumb 14.1416 63.3572
rfemur -9.47197 6.65239 22.3559
rtibia 23.2145
rfoot -12.3421 2.04776
rtoes 19.687
lfemur -11.5845 7.16673 -8.38174
ltibia 46.7925
lfoot 1.96225 -11.3866
ltoes 2.34517
368
root 9.25348 18.3879 -5.6214 -7.24522 65.65 -7.51957
lowerback 0.338151 -3.41767 -0.0635368
upperback 4.98795 -4.38811 -2.67934
thorax 4.75604 -2.09583 -2.89437
lowerneck -0.965479 -6.46862 -6.74698
upperneck 40.2529 -5.21067 -4.86672
head 14.0955 -3.42741 -1.2934
rclavicle -9.80008e-014 3.18055e-015
rhumerus -37.0938 0.965401 -23.9307
rradius 132.742
rwrist -33.1907
rhand -3.57841 -0.861011
rfingers 7.12502
rthumb 22.1588 -29.6111
lclavicle -9.80008e-014 3.18055e-015
lhumerus -35.4802 20.4012 73.6099
lradius 27.0157
lwrist -17.196
lhand -12.2518 33.0903
lfingers 7.12502
lthumb 13.8143 62.6116
rfemur -9.36366 6.73992 22.5893
rtibia 23.1537
rfoot -12.3968 2.02654
rtoes 19.6845
lfemur -12.1456 7.3797 -7.90271
ltibia 47.6698
lfoot 3.40757 -11.9228
ltoes 4.97353
369
root 9.25607 18.391 -5.61799 -7.61218 65.5385 -7.91024
lowerback 0.43388 -3.44124 0.0857929
upperback 4.99992 -4.42653 -2.63344
thorax 4.70461 -2.11075 -2.92472
lowerneck -0.899814 -6.45407 -6.57799
upperneck 40.3176 -5.07789 -5.22167
head 14.0913 -3.38577 -1.45094
rclavicle 1.61016e-014 1.74931e-014
rhumerus -37.3023 0.934778 -23.8594
rradius 132.745
rwrist -33.9085
rhand -2.87385 -1.32606
rfingers 7.12502
rthumb 22.835 -29.9943
lclavicle 1.61016e-014 1.74931e-014
lhumerus -35.1679 19.9136 73.5995
lradius 27.0958
lwrist -17.3185
lhand -12.974 33.5793
lfingers 7.12502
lthumb 13.1183 63.1467
rfemur -9.34102 6.5898 22.7852
rtibia 23.1412
rfoot -12.3336 2.26362
rtoes 19.8254
lfemur -12.7182 7.50464 -7.4588
ltibia 48.4569
lfoot 4.85518 -12.4434
ltoes 7.28682
370
root 9.25821 18.3884 -5.61558 -7.71397 65.3736 -8.00697
lowerback 0.529265 -3.26974 0.252259
upperback 5.00268 -4.20056 -2.65541
thorax 4.65066 -1.99133 -3.02658
lowerneck -0.36879 -6.61547 -6.33824
upperneck 40.106 -5.2611 -5.58096
head 13.849 -3.46441 -1.62628
rclavicle -6.61953e-014 2.06736e-014
rhumerus -37.9559 0.735629 -23.5958
rradius 132.698
rwrist -34.552
rhand -2.2509 -2.34502
rfingers 7.12502
rthumb 23.4327 -30.9382
lclavicle -6.61953e-014 2.06736e-014
lhumerus -34.633 17.9561 74.0656
lradius 27.1502
lwrist -16.447
lhand -13.6923 34.325
lfingers 7.12502
lthumb 12.4258 63.9356
rfemur -9.3442 6.45748 22.8587
rtibia 23.1561
rfoot -12.1979 2.56801
rtoes 19.7664
lfemur -13.206 7.8236 -7.12042
ltibia 49.1586
lfoot 5.85889 -13.1678
ltoes 6.77284
371
root 9.2655 18.3889 -5.61405 -7.4834 65.234 -7.63037
lowerback 0.635581 -3.1036 0.245472
upperback 5.05184 -3.97147 -2.75454
thorax 4.64735 -1.87366 -3.11418
lowerneck 0.0470074 -6.19013 -7.27455
upperneck 39.9117 -4.73993 -4.93187
head 13.7465 -3.28226 -1.12273
rclavicle 3.37934e-015 -3.18055e-014
rhumerus -38.4099 0.531827 -23.4236
rradius 132.473
rwrist -34.9294
rhand -2.1105 -3.22824
rfingers 7.12502
rthumb 23.5674 -31.8042
lclavicle 3.37934e-015 -3.18055e-014
lhumerus -34.3068 16.6708 74.4233
lradius 27.4155
lwrist -15.9427
lhand -14.0468 35.0672
lfingers 7.12502
lthumb 12.084 64.6983
rfemur -9.19591 6.15219 22.6898
rtibia 23.1196
rfoot -12.2104 2.98985
rtoes 17.6095
lfemur -13.4956 8.14321 -7.02565
ltibia 49.769
lfoot 6.35892 -13.7541
ltoes 5.42885
